<svg xmlns="http://www.w3.org/2000/svg" version="1.1" xmlns:xlink="http://www.w3.org/1999/xlink" xmlns:svgjs="http://svgjs.dev/svgjs" width="1000" height="625" viewBox="0 0 1000 625"><g transform="matrix(1,0,0,1,0,0)"><svg viewBox="0 0 512 320" data-background-color="#fafafa" preserveAspectRatio="xMidYMid meet" height="625" width="1000" xmlns="http://www.w3.org/2000/svg" xmlns:xlink="http://www.w3.org/1999/xlink"><g id="tight-bounds" transform="matrix(1,0,0,1,0,0)"><svg viewBox="0 0 512 320" height="320" width="512"><g><svg></svg></g><g><svg viewBox="0 0 512 320" height="320" width="512"><g><path d="M96 160c0-88.366 71.634-160 160-160 88.366 0 160 71.634 160 160 0 88.366-71.634 160-160 160-88.366 0-160-71.634-160-160z" fill="#130912" fill-rule="nonzero" stroke="none" stroke-width="1" stroke-linecap="butt" stroke-linejoin="miter" stroke-miterlimit="10" stroke-dasharray="" stroke-dashoffset="0" font-family="none" font-weight="none" font-size="none" text-anchor="none" style="mix-blend-mode: normal" data-fill-palette-color="tertiary"></path></g><g transform="matrix(1,0,0,1,153.6,125.80916181374636)"><svg viewBox="0 0 204.8 68.38167637250729" height="68.38167637250729" width="204.8"><g><svg viewBox="0 0 204.8 68.38167637250729" height="68.38167637250729" width="204.8"><g><svg viewBox="0 0 204.8 68.38167637250729" height="68.38167637250729" width="204.8"><g><svg viewBox="0 0 204.8 68.38167637250729" height="68.38167637250729" width="204.8"><g><svg viewBox="0 0 204.8 46.788770571152" height="46.788770571152" width="204.8"><g transform="matrix(1,0,0,1,0,0)"><svg width="204.8" viewBox="4 -35.2 154.94 35.400000000000006" height="46.788770571152" data-palette-color="#fafafa"><path d="M23.2-3L22.95 0 4 0 4-35 7.4-35 7.4-3 23.2-3ZM52.6 0L49.3-9.25 33.9-9.25 30.7 0 27.45 0 40.1-35 43.15-35 56.25 0 52.6 0ZM41.45-31.2L34.75-11.75 48.4-11.75 41.45-31.2ZM84.7-32.35L83.4-30.1Q82.09-31.4 78.7-32.05L78.7-32.05Q77.45-32.3 75.45-32.3 73.45-32.3 71.22-31.35 69-30.4 67.3-28.4L67.3-28.4Q63.65-24 63.65-16 63.65-8 67.3-4.8L67.3-4.8Q69.8-2.55 73.92-2.55 78.05-2.55 81.84-3.6L81.84-3.6 82.09-15.5 84.84-15.5 84.84-2Q82.65-0.6 76.9 0L76.9 0Q75.3 0.2 73.52 0.2 71.75 0.2 69.34-0.38 66.95-0.95 64.9-2.7L64.9-2.7Q60.25-6.65 60.25-15.85 60.25-25.05 64.65-30.08 69.05-35.1 76-35.1L76-35.1 77.59-35Q80.75-34.7 82.42-33.85 84.09-33 84.7-32.35L84.7-32.35ZM105.84-35.2L105.84-35.2Q120.59-35.2 120.59-17.4L120.59-17.4Q120.59-9.25 116.39-4.53 112.19 0.2 105.84 0.2L105.84 0.2Q99.09 0.2 95.39-3.5L95.39-3.5Q91.09-7.9 91.09-16.75 91.09-25.6 95.32-30.4 99.54-35.2 105.84-35.2ZM97.84-5.9L97.84-5.9Q100.59-2.8 105.84-2.8L105.84-2.8Q110.79-2.8 113.99-6.73 117.19-10.65 117.19-18 117.19-25.35 113.84-29.05L113.84-29.05Q111.04-32.2 105.84-32.2L105.84-32.2Q100.94-32.2 97.72-28.25 94.49-24.3 94.49-16.93 94.49-9.55 97.84-5.9ZM129.59 0L126.44 0 126.44-35 129.84-35 142.69-9.4 155.54-35 158.94-35 158.94 0 155.79 0 155.79-29.2 144.39-6.55 140.99-6.55 129.59-29.2 129.59 0Z" opacity="1" transform="matrix(1,0,0,1,0,0)" fill="#fafafa" class="undefined-text-0" data-fill-palette-color="quaternary" id="text-0"></path></svg></g></svg></g><g transform="matrix(1,0,0,1,39.116800000000005,57.83447637250728)"><svg viewBox="0 0 126.5664 10.547200000000002" height="10.547200000000002" width="126.5664"><g transform="matrix(1,0,0,1,0,0)"><svg width="126.5664" viewBox="4.65 -35.1 545.34 45.45" height="10.547200000000002" data-palette-color="#fafafa"><path d="M16.65-34.95L16.65-34.95Q20.25-34.95 22.75-34.02 25.25-33.1 26.8-31.05 28.35-29 29.05-25.6 29.75-22.2 29.75-17.25L29.75-17.25Q29.75-12.3 29.05-8.9 28.35-5.5 26.8-3.45 25.25-1.4 22.75-0.48 20.25 0.45 16.65 0.45L16.65 0.45Q13.15 0.45 10.2 0.33 7.25 0.2 4.65 0L4.65 0 6.1-2.6Q8.3-2.55 10.88-2.5 13.45-2.45 16.65-2.45L16.65-2.45Q20.25-2.45 22.38-3.83 24.5-5.2 25.43-8.45 26.35-11.7 26.35-17.25L26.35-17.25Q26.35-22.8 25.43-26.05 24.5-29.3 22.38-30.7 20.25-32.1 16.65-32.1L16.65-32.1Q13.5-32.1 10.95-32.05 8.4-32 6.05-31.9L6.05-31.9 4.65-34.5Q7.25-34.7 10.23-34.83 13.2-34.95 16.65-34.95ZM4.65-34.5L7.9-34.5 7.9 0 4.65 0 4.65-34.5ZM46.95-24.85L46.95-24.85Q52.15-24.85 54.57-22.95 57-21.05 57.05-17.3L57.05-17.3Q57.1-14.05 55.8-12.3 54.5-10.55 51.45-10.55L51.45-10.55 37.4-10.55 37.4-13.05 50.75-13.05Q52.6-13.05 53.25-14.25 53.9-15.45 53.85-17.25L53.85-17.25Q53.8-19.85 52.2-20.98 50.6-22.1 47.1-22.1L47.1-22.1Q44.2-22.1 42.5-21.2 40.8-20.3 40.1-18.18 39.4-16.05 39.4-12.4L39.4-12.4Q39.4-8.35 40.25-6.13 41.1-3.9 42.95-3.03 44.8-2.15 47.8-2.15L47.8-2.15Q49.9-2.15 52.17-2.33 54.45-2.5 56.15-2.75L56.15-2.75 56.5-0.6Q55.45-0.2 53.82 0.05 52.2 0.3 50.47 0.45 48.75 0.6 47.4 0.6L47.4 0.6Q43.3 0.6 40.82-0.68 38.35-1.95 37.2-4.78 36.05-7.6 36.05-12.2L36.05-12.2Q36.05-16.95 37.17-19.7 38.3-22.45 40.7-23.65 43.1-24.85 46.95-24.85ZM74.09-24.85L74.09-24.85Q75.09-24.85 76.4-24.75 77.7-24.65 79.05-24.43 80.4-24.2 81.55-23.8L81.55-23.8 81.09-21.7Q79.55-21.9 77.7-22 75.84-22.1 74.59-22.1L74.59-22.1Q71.45-22.1 69.57-21.23 67.7-20.35 66.87-18.18 66.05-16 66.05-12.15L66.05-12.15Q66.05-8.3 66.87-6.1 67.7-3.9 69.57-3.03 71.45-2.15 74.59-2.15L74.59-2.15Q75.34-2.15 76.55-2.2 77.75-2.25 79.09-2.35 80.45-2.45 81.65-2.65L81.65-2.65 82.05-0.5Q80.25 0.05 78.17 0.33 76.09 0.6 74.05 0.6L74.05 0.6Q69.95 0.6 67.45-0.65 64.95-1.9 63.82-4.67 62.7-7.45 62.7-12.15L62.7-12.15Q62.7-16.8 63.82-19.6 64.95-22.4 67.45-23.63 69.95-24.85 74.09-24.85ZM97.74-24.85L97.74-24.85Q101.79-24.85 104.24-23.6 106.69-22.35 107.77-19.55 108.84-16.75 108.84-12.1L108.84-12.1Q108.84-7.45 107.77-4.65 106.69-1.85 104.24-0.6 101.79 0.65 97.74 0.65L97.74 0.65Q93.69 0.65 91.24-0.6 88.79-1.85 87.69-4.65 86.59-7.45 86.59-12.1L86.59-12.1Q86.59-16.75 87.69-19.55 88.79-22.35 91.24-23.6 93.69-24.85 97.74-24.85ZM97.74-22.1L97.74-22.1Q94.79-22.1 93.09-21.2 91.39-20.3 90.67-18.13 89.94-15.95 89.94-12.1L89.94-12.1Q89.94-8.3 90.67-6.1 91.39-3.9 93.09-3 94.79-2.1 97.74-2.1L97.74-2.1Q100.64-2.1 102.37-3 104.09-3.9 104.82-6.1 105.54-8.3 105.54-12.1L105.54-12.1Q105.54-15.95 104.82-18.13 104.09-20.3 102.37-21.2 100.64-22.1 97.74-22.1ZM116.04-24.25L118.49-24.25 118.89-19.65 119.19-18.9 119.19 0 116.04 0 116.04-24.25ZM129.54-24.85L130.59-24.85 130.19-21.85 128.99-21.85Q126.64-21.85 124.37-20.83 122.09-19.8 118.89-17.9L118.89-17.9 118.64-20Q121.44-22.25 124.19-23.55 126.94-24.85 129.54-24.85L129.54-24.85ZM147.09-24.85L147.09-24.85Q149.59-24.85 151.31-24.13 153.04-23.4 153.94-21.78 154.84-20.15 154.84-17.4L154.84-17.4 154.84 0 152.34 0 151.84-5.3 151.64-5.75 151.64-17.4Q151.64-19.7 150.56-20.9 149.49-22.1 146.49-22.1L146.49-22.1Q144.29-22.1 141.39-21.9 138.49-21.7 135.74-21.4L135.74-21.4 135.44-23.75Q137.14-24.05 139.04-24.28 140.94-24.5 142.99-24.68 145.04-24.85 147.09-24.85ZM140.79-14.8L153.19-14.8 153.14-12.4 141.29-12.3Q139.39-12.25 138.51-11.28 137.64-10.3 137.64-8.55L137.64-8.55 137.64-6.45Q137.64-4.4 138.69-3.4 139.74-2.4 141.89-2.4L141.89-2.4Q143.49-2.35 145.41-2.95 147.34-3.55 149.24-4.7 151.14-5.85 152.59-7.4L152.59-7.4 152.59-4.95Q151.99-4.2 150.86-3.3 149.74-2.4 148.26-1.55 146.79-0.7 145.01-0.15 143.24 0.4 141.34 0.4L141.34 0.4Q139.24 0.4 137.69-0.35 136.14-1.1 135.26-2.58 134.39-4.05 134.39-6.15L134.39-6.15 134.39-8.95Q134.39-11.75 136.06-13.28 137.74-14.8 140.79-14.8L140.79-14.8ZM164.69-31.55L167.84-31.55 167.84-6.05Q167.84-4.2 168.71-3.35 169.59-2.5 171.39-2.5L171.39-2.5 175.34-2.5 175.74-0.15Q174.99 0.05 174.01 0.18 173.03 0.3 172.14 0.35 171.24 0.4 170.69 0.4L170.69 0.4Q167.74 0.4 166.21-1.15 164.69-2.7 164.69-5.65L164.69-5.65 164.69-31.55ZM165.03-24.25L176.03-24.25 176.03-21.65 160.28-21.65 160.28-24 165.03-24.25ZM191.13-24.85L191.13-24.85Q196.33-24.85 198.76-22.95 201.18-21.05 201.23-17.3L201.23-17.3Q201.28-14.05 199.98-12.3 198.68-10.55 195.63-10.55L195.63-10.55 181.58-10.55 181.58-13.05 194.93-13.05Q196.78-13.05 197.43-14.25 198.08-15.45 198.03-17.25L198.03-17.25Q197.98-19.85 196.38-20.98 194.78-22.1 191.28-22.1L191.28-22.1Q188.38-22.1 186.68-21.2 184.98-20.3 184.28-18.18 183.58-16.05 183.58-12.4L183.58-12.4Q183.58-8.35 184.43-6.13 185.28-3.9 187.13-3.03 188.98-2.15 191.98-2.15L191.98-2.15Q194.08-2.15 196.36-2.33 198.63-2.5 200.33-2.75L200.33-2.75 200.68-0.6Q199.63-0.2 198.01 0.05 196.38 0.3 194.66 0.45 192.93 0.6 191.58 0.6L191.58 0.6Q187.48 0.6 185.01-0.68 182.53-1.95 181.38-4.78 180.23-7.6 180.23-12.2L180.23-12.2Q180.23-16.95 181.36-19.7 182.48-22.45 184.88-23.65 187.28-24.85 191.13-24.85ZM256.43-34.5L259.88-34.5 252.13-1Q251.98-0.6 251.63-0.3 251.28 0 250.73 0L250.73 0 246.78 0Q246.28 0 245.9-0.3 245.53-0.6 245.43-1.05L245.43-1.05 239.33-28.1Q239.13-29.1 238.9-30.08 238.68-31.05 238.48-32L238.48-32 237.33-32Q237.13-31.05 236.93-30.05 236.73-29.05 236.53-28.1L236.53-28.1 230.43-1.05Q230.33-0.6 229.95-0.3 229.58 0 229.08 0L229.08 0 225.08 0Q224.58 0 224.2-0.3 223.83-0.6 223.73-1L223.73-1 215.98-34.5 219.43-34.5 225.73-6.5Q225.98-5.6 226.15-4.6 226.33-3.6 226.53-2.55L226.53-2.55 227.78-2.55Q227.98-3.6 228.18-4.58 228.38-5.55 228.58-6.5L228.58-6.5 234.68-33.35Q234.78-33.9 235.15-34.2 235.53-34.5 236.03-34.5L236.03-34.5 239.83-34.5Q240.33-34.5 240.68-34.2 241.03-33.9 241.13-33.35L241.13-33.35 247.28-6.5Q247.53-5.5 247.7-4.53 247.88-3.55 248.03-2.55L248.03-2.55 249.33-2.55Q249.53-3.55 249.7-4.53 249.88-5.5 250.08-6.45L250.08-6.45 256.43-34.5ZM265.88-24.25L268.98-24.25 268.98 0 265.88 0 265.88-24.25ZM266.68-34.45L268.18-34.45Q269.23-34.45 269.23-33.4L269.23-33.4 269.23-30.45Q269.23-29.4 268.18-29.4L268.18-29.4 266.68-29.4Q265.63-29.4 265.63-30.45L265.63-30.45 265.63-33.4Q265.63-34.45 266.68-34.45L266.68-34.45ZM279.22-31.55L282.37-31.55 282.37-6.05Q282.37-4.2 283.25-3.35 284.12-2.5 285.92-2.5L285.92-2.5 289.87-2.5 290.27-0.15Q289.52 0.05 288.55 0.18 287.57 0.3 286.67 0.35 285.77 0.4 285.22 0.4L285.22 0.4Q282.27 0.4 280.75-1.15 279.22-2.7 279.22-5.65L279.22-5.65 279.22-31.55ZM279.57-24.25L290.57-24.25 290.57-21.65 274.82-21.65 274.82-24 279.57-24.25ZM310.07-24.85L310.07-24.85Q316.62-24.85 316.62-18.2L316.62-18.2 316.62 0 313.42 0 313.42-17.35Q313.42-19.95 312.44-21.03 311.47-22.1 309.27-22.1L309.27-22.1Q306.82-22.1 304.44-20.98 302.07-19.85 298.82-17.7L298.82-17.7 298.72-20.05Q301.62-22.25 304.47-23.55 307.32-24.85 310.07-24.85ZM296.02-35L299.17-35 299.22-24.95Q299.22-23.45 299.12-22.1 299.02-20.75 298.82-19.65L298.82-19.65 299.17-18.9 299.17 0 296.02 0 296.02-35ZM345.77-35.1L345.77-35.1Q348.22-35.05 350.72-34.85 353.22-34.65 355.72-34.2L355.72-34.2 355.47-31.8Q353.27-31.95 350.77-32.05 348.27-32.15 345.92-32.15L345.92-32.15Q343.87-32.15 342.39-32 340.92-31.85 339.97-31.3 339.02-30.75 338.59-29.5 338.17-28.25 338.17-26L338.17-26Q338.17-22.8 339.27-21.48 340.37-20.15 342.92-19.65L342.92-19.65 350.17-18.15Q354.06-17.35 355.59-15.1 357.12-12.85 357.12-8.7L357.12-8.7Q357.12-5.65 356.42-3.83 355.72-2 354.34-1.05 352.97-0.1 350.87 0.25 348.77 0.6 345.92 0.6L345.92 0.6Q344.12 0.6 341.47 0.45 338.81 0.3 335.42-0.25L335.42-0.25 335.67-2.65Q338.22-2.55 339.94-2.48 341.67-2.4 343.06-2.38 344.47-2.35 346.02-2.35L346.02-2.35Q348.92-2.4 350.62-2.85 352.31-3.3 353.04-4.65 353.77-6 353.77-8.75L353.77-8.75Q353.77-11 353.29-12.28 352.81-13.55 351.74-14.23 350.67-14.9 348.97-15.2L348.97-15.2 341.62-16.75Q337.92-17.5 336.39-19.78 334.87-22.05 334.87-26.05L334.87-26.05Q334.87-29.1 335.54-30.93 336.22-32.75 337.54-33.65 338.87-34.55 340.92-34.83 342.97-35.1 345.77-35.1ZM364.26-24.25L367.36-24.25 367.36 0 364.26 0 364.26-24.25ZM365.06-34.45L366.56-34.45Q367.61-34.45 367.61-33.4L367.61-33.4 367.61-30.45Q367.61-29.4 366.56-29.4L366.56-29.4 365.06-29.4Q364.01-29.4 364.01-30.45L364.01-30.45 364.01-33.4Q364.01-34.45 365.06-34.45L365.06-34.45ZM405.21-24.85L405.21-24.85Q408.31-24.85 409.96-23.15 411.61-21.45 411.61-18.2L411.61-18.2 411.61 0 408.46 0 408.46-17.35Q408.41-19.8 407.41-20.95 406.41-22.1 404.16-22.1L404.16-22.1Q402.71-22.1 401.38-21.63 400.06-21.15 398.56-20.18 397.06-19.2 395.01-17.7L395.01-17.7 394.81-20Q397.51-22.4 400.08-23.63 402.66-24.85 405.21-24.85ZM375.96-24.25L378.56-24.25 378.81-19.65 379.11-18.9 379.11 0 375.96 0 375.96-24.25ZM388.96-24.85L388.96-24.85Q392.01-24.85 393.66-23.18 395.31-21.5 395.31-18.2L395.31-18.2 395.31 0 392.26 0 392.26-17.35Q392.26-19.9 391.19-21 390.11-22.1 387.96-22.1L387.96-22.1Q386.56-22.1 385.24-21.65 383.91-21.2 382.38-20.23 380.86-19.25 378.76-17.7L378.76-17.7 378.56-20Q381.26-22.4 383.81-23.63 386.36-24.85 388.96-24.85ZM432.71-24.85L432.71-24.85Q437.31-24.85 439.26-21.7 441.21-18.55 441.21-12.05L441.21-12.05Q441.21-7.4 440.26-4.63 439.31-1.85 437.31-0.63 435.31 0.6 432.16 0.6L432.16 0.6Q429.76 0.6 427.38-0.08 425.01-0.75 422.66-2.05L422.66-2.05 422.81-4.05Q425.41-3.2 427.38-2.7 429.36-2.2 431.51-2.2L431.51-2.2Q433.86-2.2 435.26-3.08 436.66-3.95 437.31-6.1 437.96-8.25 437.96-12.05L437.96-12.05Q437.96-15.75 437.33-17.93 436.71-20.1 435.38-21.08 434.06-22.05 431.81-22.05L431.81-22.05Q429.71-22.05 427.63-21 425.56-19.95 422.76-17.75L422.76-17.75 422.56-20.05Q424.06-21.55 425.73-22.63 427.41-23.7 429.21-24.28 431.01-24.85 432.71-24.85ZM419.81-24.25L422.41-24.25 422.76-19.4 422.96-18.95 422.96-2.95 422.81-2.35Q422.96-0.95 422.96 0.25 422.96 1.45 422.96 2.85L422.96 2.85 422.96 10.2 419.81 10.2 419.81-24.25ZM448.5-35L451.65-35 451.61-6.05Q451.61-4.3 452.56-3.4 453.5-2.5 455.2-2.5L455.2-2.5 457.75-2.5 458.11-0.15Q457.7 0.05 456.98 0.18 456.25 0.3 455.45 0.35 454.65 0.4 454.11 0.4L454.11 0.4Q451.56 0.4 450.03-1.1 448.5-2.6 448.5-5.4L448.5-5.4 448.5-35ZM463-24.25L466.1-24.25 466.1 0 463 0 463-24.25ZM463.8-34.45L465.3-34.45Q466.35-34.45 466.35-33.4L466.35-33.4 466.35-30.45Q466.35-29.4 465.3-29.4L465.3-29.4 463.8-29.4Q462.75-29.4 462.75-30.45L462.75-30.45 462.75-33.4Q462.75-34.45 463.8-34.45L463.8-34.45ZM484.85-24.85L484.85-24.85Q485.85-24.85 487.15-24.75 488.45-24.65 489.8-24.43 491.15-24.2 492.3-23.8L492.3-23.8 491.85-21.7Q490.3-21.9 488.45-22 486.6-22.1 485.35-22.1L485.35-22.1Q482.2-22.1 480.32-21.23 478.45-20.35 477.63-18.18 476.8-16 476.8-12.15L476.8-12.15Q476.8-8.3 477.63-6.1 478.45-3.9 480.32-3.03 482.2-2.15 485.35-2.15L485.35-2.15Q486.1-2.15 487.3-2.2 488.5-2.25 489.85-2.35 491.2-2.45 492.4-2.65L492.4-2.65 492.8-0.5Q491 0.05 488.93 0.33 486.85 0.6 484.8 0.6L484.8 0.6Q480.7 0.6 478.2-0.65 475.7-1.9 474.57-4.67 473.45-7.45 473.45-12.15L473.45-12.15Q473.45-16.8 474.57-19.6 475.7-22.4 478.2-23.63 480.7-24.85 484.85-24.85ZM499.15-24.25L502.25-24.25 502.25 0 499.15 0 499.15-24.25ZM499.95-34.45L501.45-34.45Q502.5-34.45 502.5-33.4L502.5-33.4 502.5-30.45Q502.5-29.4 501.45-29.4L501.45-29.4 499.95-29.4Q498.9-29.4 498.9-30.45L498.9-30.45 498.9-33.4Q498.9-34.45 499.95-34.45L499.95-34.45ZM512.5-31.55L515.64-31.55 515.64-6.05Q515.64-4.2 516.52-3.35 517.39-2.5 519.19-2.5L519.19-2.5 523.14-2.5 523.54-0.15Q522.79 0.05 521.82 0.18 520.85 0.3 519.94 0.35 519.04 0.4 518.5 0.4L518.5 0.4Q515.54 0.4 514.02-1.15 512.5-2.7 512.5-5.65L512.5-5.65 512.5-31.55ZM512.85-24.25L523.85-24.25 523.85-21.65 508.09-21.65 508.09-24 512.85-24.25ZM546.59-24.25L549.99-24.25 539.79 1.7Q539.19 3.25 538.37 4.7 537.54 6.15 536.39 7.35 535.24 8.55 533.72 9.35 532.19 10.15 530.19 10.35L530.19 10.35 529.79 8.3Q532.79 7.3 534.34 5.53 535.89 3.75 536.89 1.35L536.89 1.35 537.99-1.35Q538.39-2.3 538.77-3.38 539.14-4.45 539.49-5.35L539.49-5.35 546.59-24.25ZM526.19-24.25L529.59-24.25 536.74-5.3Q536.99-4.6 537.27-3.9 537.54-3.2 537.74-2.5L537.74-2.5 538.79-2.5 537.74 0 536.59 0Q536.19 0 535.87-0.23 535.54-0.45 535.39-0.85L535.39-0.85 526.19-24.25Z" opacity="1" transform="matrix(1,0,0,1,0,0)" fill="#fafafa" class="undefined-text-1" data-fill-palette-color="quaternary" id="text-1"></path></svg></g></svg></g></svg></g></svg></g><g></g></svg></g></svg></g></svg></g><defs></defs></svg><rect width="512" height="320" fill="none" stroke="none" visibility="hidden"></rect></g></svg></g></svg>